<?xml version="1.0" encoding="UTF-8"?>
<svg width="128" height="128" version="1.1" viewBox="0 0 33.866 33.866" xmlns="http://www.w3.org/2000/svg" xmlns:cc="http://creativecommons.org/ns#" xmlns:dc="http://purl.org/dc/elements/1.1/" xmlns:rdf="http://www.w3.org/1999/02/22-rdf-syntax-ns#">
 <defs>
  <clipPath id="clipPath1727">
   <g transform="matrix(1.2824 0 0 1.2824 -9.2027 -23.196)" stroke-width=".26458" aria-label="S">
    <path d="m57.393 99.879c-2.2194 0.05588-4.7367 0.91102-5.7118 3.0761-0.89616 2.112-0.46865 4.9292 1.4892 6.3102 1.4371 1.1354 3.2804 1.576 4.7616 2.6235 0.47409 0.63489-0.46681 1.077-1.0064 0.9997-2.1014 0.049-3.9485-0.73578-5.7944-1.6501v5.0644c2.3342 1.1949 5.0629 1.4377 7.623 1.0039 2.3464-0.39769 4.3952-2.3244 4.6758-4.7285 0.28909-1.8368-0.44614-3.8302-2.0492-4.8452-1.4009-1.09-3.2279-1.4432-4.6286-2.5181-0.47363-0.60454 0.50462-0.88187 0.96289-0.80859 1.4751 0.0396 2.8633 0.62397 4.1934 1.2129 0.57433-1.4511 1.1496-2.9019 1.7227-4.3535-1.9557-0.89376-4.0689-1.5012-6.2383-1.3867z" stroke-width=".26458"/>
   </g>
  </clipPath>
 </defs>
 <metadata>
  <rdf:RDF>
   <cc:Work rdf:about="">
    <dc:format>image/svg+xml</dc:format>
    <dc:type rdf:resource="http://purl.org/dc/dcmitype/StillImage"/>
    <dc:title/>
   </cc:Work>
  </rdf:RDF>
 </metadata>
 <g stroke-width="1.5875">
  <rect x="1.697" y="7.5989" width="30.472" height="24.624" ry="5.433" fill="none" stroke="#000" stroke-linejoin="round"/>
  <g transform="translate(-.82035 -.2683)">
   <path d="m15.346 7.9374-5.2916-5.2916" fill="none" stroke="#000"/>
   <circle cx="9.9593" cy="2.4406" r="1.0583"/>
  </g>
  <g transform="matrix(-1 0 0 1 34.686 -.2683)">
   <path d="m15.346 7.9374-5.2916-5.2916" fill="none" stroke="#000"/>
   <circle cx="9.9593" cy="2.4406" r="1.0583"/>
  </g>
 </g>
 <g transform="matrix(.99998 0 0 .99998 -52.314 -96.424)" clip-path="url(#clipPath1727)" fill="none">
  <path transform="matrix(1.2824 0 0 1.2824 -50.314 -26.124)" d="m88.052 96.983c-1.5534 0.24305-2.1114 0.0046-2.4945 2.4548-0.06455 0.41282 0.45821 0.71078 0.76947 0.98954 1.019 0.91264 2.4211 1.1743 3.7051 1.4406 0.2539 0.0527 0.53156 0.0621 0.77767-0.0195 0.40249-0.13351 0.78043-0.35094 1.117-0.60895 0.50068-0.38385 0.76847-1.3885 0.86874-1.8744 0.17653-0.85554-1.2724-1.2307-1.8492-1.2655-0.42001-0.02535-0.85739-0.05844-1.2608 0.06105-1.0793 0.31967-2.7731 1.0888-3.5147 2.1018-0.25907 0.35389-0.46922 0.74244-0.67018 1.1323-0.1939 0.37616-0.33047 1.1118 0.03723 1.4272 0.46959 0.40288 0.85785 0.28986 1.5265 0.15224 1.5125-0.31131 2.3822-2.2773 2.5722-3.6596 0.05222-0.37994 0.07353-1.2891-0.60812-1.3035-0.5584-0.0118-1.1301 0.04802-1.6608 0.22214-0.32992 0.10825-0.61532 0.34608-0.85028 0.60174-1.3194 1.4356-1.9997 2.3433-2.2443 4.3103-0.05424 0.43601-0.01974 0.93953 0.23601 1.2968 1.4307 1.9987 3.6635 1.9542 5.5996 0.84958 0.35306-0.20143 0.95998-1.0259 1.0989-1.4176 0.59099-1.6666 1.0142-2.7756-0.92635-3.3392-2.9287-0.85068-5.4372 3.2972-6.4942 5.162-0.24949 0.44022-0.37066 0.94333-0.51006 1.4298-0.26553 0.92658-0.38998 2.4449 0.70934 2.9331 3.2293 1.434 5.3552-1.7058 5.9857-4.4688 0.17179-0.75285 0.54893-2.5859-0.63087-2.9908-1.297-0.44511-2.8838 1.8139-3.2673 2.3328-1.1394 1.5416-1.8388 3.6513-1.616 5.5765 0.12758 1.1021 2.0914 2.0613 3.0474 1.4177 0.53674-0.36133 1.0339-0.79899 1.4365-1.3056 0.52883-0.66546 1.1833-2.3932 0.45248-3.1461-0.7079-0.72928-1.6837-0.74439-2.717-0.62488-0.502 0.0581-1.8615 0.93832-2.241 1.314-1.0186 1.0087-2.3366 2.2774-2.7757 3.7605-0.30205 1.0202-0.52664 1.7335 0.05918 2.5281 0.13471 0.18272 0.27187 0.43294 0.49643 0.46623 1.8997 0.2816 3.4741 0.36443 5.1878-0.38943 0.68262-0.3003 1.4417-0.55868 1.9409-1.1127 2.1324-2.3665 3.2289-4.2654 3.766-7.2387 0.21192-1.173 0.54329-2.3928 0.31274-3.5623-0.0535-0.27138-1.6819 0.23729-1.7855 0.30481-0.61593 0.40126-1.2163 0.84519-1.7188 1.3817-0.42213 0.45069-0.72743 1.0024-1.0223 1.5449-0.87814 1.6155-0.98996 2.5916-1.0844 4.5794-0.0195 0.41022 0.22295 1.3811 0.53292 1.7483 0.30212 0.35787 0.6587 0.67357 1.0425 0.94198 0.23628 0.16523 0.50709 0.31694 0.79428 0.34253 1.5791 0.14068 1.9816 0.15853 2.9884-0.81697 0.35717-0.34606 0.75159-0.69176 0.9568-1.1448 0.57417-1.2675 1.1489-2.573 1.351-3.9497 0.13896-0.94669-0.1604-1.9115-0.35313-2.8487-0.07118-0.34613-0.8326-0.8509-1.0549-0.88489-2.6309-0.40214-2.8333-0.36542-4.9075 0.51326-0.39623 0.16785-0.81919 0.31056-1.1511 0.5845-1.8179 1.5006-3.12 3.0377-2.8461 5.5033 0.02896 0.26073 0.52235 1.1255 0.84026 1.2926 1.2219 0.64257 1.6971 0.9468 2.8766 0.34408 0.37224-0.1902 0.75545-0.42373 0.99004-0.76972 3.0501-4.4986 4.2601-6.3822 5.2669-11.528 0.29489-1.5072 0.29784-3.0587 0.36089-4.5932 0.0052-0.12647-0.17077-0.91402-0.3189-0.99058-0.28448-0.14704-0.6133-0.27966-0.9308-0.23787-0.37119 0.04886-0.72562 0.24864-1.0091 0.4932-1.0758 0.92809-2.1542 1.8783-3.0335 2.9943-0.8657 1.0988-1.4803 2.3754-2.1602 3.5979-0.58074 1.0442-1.1896 2.083-1.6193 3.1978-1.0724 2.7817-1.913 4.9928 0.0646 7.3684 0.86871 1.0435 3.3974 1.4442 4.6977 1.1497 0.53933-0.12214 1.042-0.38344 1.5258-0.65122 0.4274-0.23655 0.90335-0.45858 1.1918-0.85284 0.11748-0.16059-0.39759 0.0197-0.59572 0.0381-0.31638 0.0294-0.63199 0.0667-0.9474 0.10512-1.6722 0.20356-3.5295 0.32569-5.0053 1.1992-0.40564 0.24011-0.88217 0.42336-1.1666 0.79925-0.46762 0.61797-0.85701 1.3317-1.0193 2.0895-0.18623 0.86945 0.23571 2.4265 1.3173 2.6656 0.57024 0.12605 1.3641 0.48455 1.7514 0.0474 3.1007-3.4995 4.2906-6.0792 5.1343-10.153 0.1668-0.80533 0.29082-1.6268 0.29764-2.4492 0.0047-0.56157-0.14665-1.1147-0.2635-1.664-0.02567-0.12064-0.07435-0.24557-0.16134-0.33302-0.6499-0.65326-1.7542 0.10478-2.3303 0.42667-1.4187 0.79278-3.2617 3.4493-3.9392 4.3634-0.88465 1.1935-1.2096 1.9967-0.80474 3.4845 0.11459 0.42106 0.83999 1.0728 1.1846 1.1649 0.80722 0.21567 1.6549 0.31739 2.49 0.28829 0.33716-0.0117 0.65952-0.2011 0.92647-0.40738 0.43582-0.33676 2.4867-1.9623 2.5607-3.0752 0.02056-0.30921-0.03347-0.62309-0.11169-0.92295-0.02796-0.10717-0.08951-0.24708-0.19857-0.26641-1.3388-0.23735-2.009-0.1757-3.1498 0.54481-0.47466 0.29978-0.92074 0.6625-1.2821 1.0922-2.1093 2.5079-2.8786 3.4994-3.9597 6.2234-0.57372 1.4455-1.0203 3.6283 0.02043 4.9627 2.061 2.6425 3.8278 2.5356 6.7499 1.0365 0.48832-0.25051 0.86347-0.69023 1.2129-1.1134 0.92636-1.1219 1.7674-2.3127 2.6008-3.5052 0.03536-0.0506 0.72392-1.1437 0.69252-1.4757-0.0096-0.10132-0.32866-0.0119-0.61996 0.32376-1.0847 1.2497-2.1307 2.5344-3.1268 3.8558-0.80974 1.0742-1.5461 2.2022-2.2865 3.3253-0.78394 1.1891-1.5199 2.4092-2.2857 3.61-0.19156 0.30038-0.3426 0.63428-0.58818 0.89237-0.0123 0.0129-0.0016-0.0358 0-0.0536 0.13694-1.4281 0.41564-2.8492 0.4159-4.2838 2.64e-4 -2.0891-0.25425-5.2097-2.8993-5.5676-2.8388-0.38408-5.0352 4.3221-1.4999 5.4552 0.61199 0.19613 1.2657 0.47267 1.8962 0.34842 4.1909-0.82587 5.6435-5.2609 6.8576-8.7299 0.25033-0.71527 0.2439-1.497 0.31596-2.2514 0.04337-0.45409 0.03541-2.399-0.47165-2.5888-0.66354-0.24835-1.3489-0.55323-2.0571-0.53467-1.1273 0.0295-3.5065 0.76865-4.5411 1.5412-0.40991 0.30608-0.71589 0.7402-0.99286 1.1703-0.12333 0.19154 0.17104 0.64305 0.31027 0.68507 1.1074 0.33418 2.4452 0.7097 3.598 0.22603 1.4973-0.62823 2.2925-2.0425 3.1258-3.3677 0.2172-0.34543 0.40098-0.73926 0.42947-1.1463 0.08662-1.2377 0.02503-1.8664-0.61594-2.7165-1.02-1.3527-3.0352-1.7094-4.5317-0.98745-0.59854 0.28875-1.1644 0.64489-1.713 1.0199-0.2094 0.14313-0.3984 0.32268-0.54938 0.5265-0.33815 0.4565-0.63678 0.94304-0.90866 1.4418-0.29686 0.54464-0.45736 1.3227-0.0013 1.8497 0.54392 0.62862 2.2551-0.0134 2.4627-0.1006 0.33722-0.14172 0.5699-0.47332 0.77726-0.77466 1.105-1.6059 2.4639-4.3229 0.34862-5.7129-0.66301-0.4357-2.2939 0.61222-2.3222 0.62628-1.9222 0.95532-3.5982 2.9541-4.0811 5.0421-0.11912 0.51505-0.13024 1.0492-0.19204 1.5743-0.01519 0.12901 0.04112 0.49006-0.0389 0.38774-0.15542-0.19872-0.15334-0.48077-0.22339-0.72313-0.23863-0.82553-0.46865-1.6535-0.70262-2.4804-2.425-8.5703-1.244-3.6782-3.2799-16.628-0.07751-0.49301-0.12695-0.99003-0.19073-1.485-0.01635-0.12689 0.04808-0.29802-0.04964-0.3806-0.17919-0.15142-0.56882 0.29507-0.82933 0.74434-0.6135 1.058-0.81389 1.9738-0.91396 3.2462-0.0489 0.62186 0.12702 1.5229 0.42287 2.1023 0.30824 0.6037 0.63041 1.2058 1.0296 1.7536 0.20218 0.27748 0.47396 0.50413 0.75702 0.69842 1.3594 0.9331 2.5283 1.6762 4.0355 2.2236 0.91451 0.33212 3.5864 1.062 4.2868 0.0305 0.23003-0.33878 0.37541-0.72791 0.55848-1.0942 0.01355-0.0271-0.0367 0.04873-0.04964 0.07612-0.10716 0.22663-0.23455 0.44609-0.31027 0.68507-0.22023 0.6951-0.4476 1.3926-0.57543 2.1104-0.33523 1.8826-0.59525 3.7791-0.8116 5.6791-0.08401 0.73778-0.09666 1.4834-0.08852 2.2259 0.0069 0.62685 0.05964 1.2534 0.13351 1.8759 0.0191 0.16108 0.23345 0.64861 0.28545 0.65653 0.44311 0.0675 0.91228 0.0899 1.3443-0.0294 2.2638-0.62508 3.6114-3.6718 4.5855-5.1571 0.41262-0.62915 0.80635-1.98 0.79498-2.7345-0.01119-0.74202-0.10891-1.3438-0.79734-1.6424-0.32998-0.14315-0.68522-0.28221-1.0447-0.27019-1.2477 0.0417-2.4978 0.17712-3.7205 0.42946-0.49836 0.10286-0.94144 0.3901-1.3924 0.62579-1.6298 0.85172-2.982 1.462-2.8213 3.5351 0.02275 0.29362 0.16678 0.58021 0.34878 0.81174 1.048 1.3333 2.586 2.383 4.2713 1.3677 0.38909-0.23439 0.66569-0.63647 0.89156-1.0306 2.3622-4.1212 2.1896-4.2691 3.3407-8.924 0.0236-0.0955 0.0597-0.85045-0.02482-0.87537-1.1638-0.34319-3.1206 1.8109-3.7279 2.4414-0.57261 0.59438-1.2391 1.1258-1.6643 1.8332-1.6313 2.714-3.3054 5.437-4.4743 8.3798-0.63635 1.602-1.5509 4.3662-0.7695 6.3561 0.38327 0.97599 1.6471 1.4997 2.5702 1.618 3.3368 0.42754 4.1534 0.25065 6.5005-0.90991 0.47957-0.23714 1.0195-0.40604 1.4036-0.77844 2.0458-1.9834 1.7666-2.0903 2.5277-4.3553 0.03806-0.11326-0.07072 0.2288-0.09297 0.34619-0.202 1.066-0.42336 2.1292-0.57955 3.2028-0.07928 0.54498-0.1938 2.6393-0.19036 3.2313 0.0046 0.79751-0.10878 2.6303 1.3295 1.5657 1.9636-1.4534 3.8696-5.5618 4.3907-6.7363 0.57094-1.2868 0.84234-2.7914 0.12105-4.0294-0.80652-1.3844-4.1926-1.1122-5.6445-0.81463-2.4642 0.50508-6.2818 3.3425-6.1275 6.2158 0.0574 1.0684 1.007 2.1002 1.9551 2.5066 0.23814 0.1021 0.51064 0.21584 0.76208 0.15324 3.291-0.81925 3.0162-3.3683 4.3683-6.935 0.12142-0.32031 0.0533-0.68451 0.041-1.0268-0.02825-0.78611-0.23041-0.99577-1.0063-1.5196-0.25506-0.17218-0.56838-0.25081-0.87124-0.30534-1.7546-0.31595-1.9235 0.0441-3.8221 1.0077-1.36 0.69022-2.5035 2.0019-3.0765 3.4066-0.12454 0.30531-0.26965 0.62271-0.26716 0.95243 0.0042 0.56227 0.14697 1.1177 0.28687 1.6623 0.19038 0.74113 0.57402 1.0808 1.28 1.4501 1.5047 0.78693 3.1411-2.2197 3.4618-2.6587 0.33485-0.45834 0.58737-1.2252 0.71695-1.7809 0.20658-0.88585 0.36726-1.2885-0.70741-1.6175-0.67928-0.20797-1.8972-0.1341-2.5558 0.0781-1.9379 0.62447-4.1728 1.4364-4.7979 3.6465-0.38806 1.3722-0.38489 2.6114 1.4022 2.7426 0.27518 0.0202 0.52247-0.19793 0.74464-0.36157 0.44614-0.32858 0.85089-0.71205 1.2437-1.1028 0.02257-0.0225-0.05185-0.0384-0.0712-0.0637-0.15505-0.20263-0.3021-0.41128-0.45087-0.61856-0.49606-0.69118-0.94254-1.4203-1.4836-2.0768-0.79519-0.96493-2.6493-2.1847-3.8809-1.3978-1.8902 1.2076-1.1842 4.3731-0.71728 6.0556 0.08696 0.31338 0.41145 1.1274 0.6838 1.4232 2.0105 2.184 4.5299-0.73814 5.4649-2.4853 0.45882-0.85738 0.80853-1.7737 1.1062-2.6994 0.09163-0.285 0.16985-0.62236 0.05004-0.8967-0.28698-0.65713-1.3553-0.65225-1.8509-0.62066-1.662 0.10594-5.9313 1.6029-5.8882 3.8814 0.05263 2.784 5.2322 3.4818 6.8398 1.8933 1.3708-1.3546 2.4586-3.5756 2.9477-5.2956 0.28087-0.9878 0.22139-2.217-0.32686-3.1193-0.0549-0.0904-0.15682-0.20085-0.26062-0.18078-0.9766 0.18881-1.3619 0.49451-1.8877 1.2908-1.1066 1.6761-2.2308 5.3697-0.03393 6.7238 0.61318 0.37795 1.3507 0.54814 2.066 0.63356 3.2605 0.38937 6.3248-0.42298 8.8223-2.6221 0.49306-0.43415 0.9709-0.88642 1.429-1.3573 0.63748-0.6553 0.93619-1.3427-0.5233-1.5804-1.8763-0.30558-4.1426-0.0335-5.3135 1.7038-0.75281 1.117-1.4663 3.281-0.01826 4.2729 0.26146 0.1791 0.53126 0.41657 0.84788 0.43017 0.70659 0.0304 1.4265-0.0875 2.0999-0.3035 0.34607-0.11097 0.65499-0.3612 0.87498-0.65049 1.7164-2.2571 4.0178-5.352 3.1404-8.4503-0.35676-1.2597-3.207-0.63614-3.946-0.26372-0.75894 0.38246-1.4637 0.86925-2.1494 1.3713-0.20552 0.15047-0.87287 0.97371-0.92779 1.2474-0.09284 0.46267-0.09782 1.4389 0.59572 1.608 1.2054 0.29397 2.4479 0.51416 3.6886 0.49987 1.2219-0.0141 3.1937-1.0725 3.9466-1.9362 1.9021-2.1817 5.7882-6.25 5.1907-9.9713-0.1155-0.71926-0.43636-1.3939-0.73776-2.0571-0.38093-0.83822-1.8162-1.043-2.4292-1.1162-0.46814-0.05597-0.93779 0.11227-1.3981 0.21437-2.6676 0.59175-4.1624 2.2374-4.9758 4.7421-0.08902 0.27412 9e-3 1.13 0.21099 1.3701 1.555 1.8491 3.4289 0.55683 4.6747-0.87269 0.2473-0.28376 0.53952-0.54975 0.68739-0.89589 0.68212-1.5967 0.81172-2.049 0.52064-3.5018-0.0499-0.2493-0.0964-0.51616-0.24521-0.72228-1.6674-2.3087-4.5372-0.29884-5.6238 1.5174-0.51804 0.86599-1.0468 1.7518-1.3261 2.7214-0.18353 0.63717-0.12776 1.3331-0.03066 1.989 0.0627 0.42353 0.18041 0.89837 0.50023 1.183 1.0762 0.95782 1.8796 1.2414 3.1308 1.0366 0.32057-0.0525 0.67746-0.0869 0.92997-0.29121 0.8672-0.70174 1.8258-1.7222 2.2007-2.8484 0.16416-0.49324 0.30992-1.5482-0.20992-1.5453-1.6309 9e-3 -2.0423 0.25954-3.3099 1.2645-0.52947 0.41979-1.0271 0.88336-1.4822 1.3828-3.1101 3.413-3.0092 4.1322-4.8069 9.8587-0.06301 0.2007 0.12604 0.46761 0.32268 0.54235 0.68405 0.25998 1.4269 0.41822 2.1585 0.40065 1.0927-0.0263 2.8488-1.063 3.4976-1.7819 3.5262-3.9074 4.3501-4.6725 5.8053-8.5308 0.22413-0.59422 0.81657-2.1543 0.0986-2.7128-0.84261-0.65551-1.5263-0.54599-2.7537-0.36167-0.53673 0.0806-1.0512 0.30329-1.5278 0.56311-1.7587 0.95896-3.3342 2.0559-4.238 3.8813-0.40339 0.8147-0.69883 1.3617-0.41356 2.1786 0.06507 0.18632 0.13477 0.41399 0.31027 0.50428 0.53853 0.27707 1.1286 0.50271 1.7327 0.54676 0.3955 0.0288 0.81157-0.11625 1.1408-0.33721 2.0989-1.4085 3.1553-2.517 4.1486-4.8474 0.21895-0.51373 0.17865-1.1027 0.24852-1.6568 0.0131-0.10387 0.0747-0.24068 0-0.31406-0.39065-0.38394-0.82633-0.73992-1.318-0.98131-0.27623-0.13562-0.60842-0.12687-0.91593-0.11543-1.2829 0.0477-2.2082 1.0825-2.6538 2.2013-0.20835 0.5231-0.40276 1.0672-0.44957 1.6283-0.09265 1.1105 0.11006 3.9041 1.9379 3.8532 2.1795-0.0608 2.8666-3.4505 2.7315-5.0947-0.0236-0.28778-0.18025-0.55095-0.31027-0.80876-0.55295-1.0964-1.5355-1.5703-2.8628-1.8643-4.0525-0.89766-5.1705-0.28692-8.97 0.98972-0.4788 0.16088-0.93334 0.38992-1.3805 0.62483-0.4888 0.25678-0.98305 0.5142-1.423 0.84789-0.63838 0.48423-0.85619 1.8181-0.09928 2.3502 1.1301 0.79436 2.4712 1.2726 3.7971 1.6598 0.52702 0.1539 1.945-0.48115 2.2463-0.85813 1.8649-2.3337 2.6176-3.5957 3.0359-6.3528 0.12541-0.82664 0.21921-1.6794 0.09672-2.5064-0.09464-0.63909-0.42555-1.2261-0.73359-1.794-0.12092-0.22294-0.288-0.47929-0.53366-0.54235-1.0933-0.28064-2.2271-0.48769-3.3553-0.45594-1.845 0.05192-4.4048 1.4579-5.7766 2.3455-1.6011 1.036-3.7675 2.7203-4.5652 4.6356-0.80325 1.9286-0.67205 3.5037 1.6616 4.0256 0.34032 0.0761 0.70526 0.11812 1.0454 0.0411 2.613-0.59174 3.8024-2.2313 4.0017-5.0447 0.0699-0.98648-0.33135-2.1586-1.5886-2.0933-2.8659 0.14893-4.9337 3.8814-5.3487 6.2811-0.12112 0.70034-0.22164 1.3383 0.1844 1.919 0.53154 0.76016 1.3157 0.71741 2.3097 0.6844 1.9833-0.0659 4.0469-3.4414 4.8275-5.2293 0.14203-0.32534 0.68293-2.414 0.16976-2.5197-0.60367-0.12431-1.2356-0.23984-1.8437-0.13953-0.51936 0.0857-0.9763 0.40489-1.4258 0.67886-2.0265 1.2353-2.6504 2.4272-4.2412 4.6063-1.1827 1.6201-1.5291 3.4201-1.2236 5.3908 0.04397 0.28366 0.1608 0.58723 0.3797 0.77293 0.5245 0.44493 1.135 0.79915 1.7739 1.054 0.57131 0.22788 1.9969 0.33999 2.5995-0.0142 0.76834-0.45159 1.5231-0.98888 2.0692-1.6932 2.5557-3.2969 3.0549-8.0063 3.6693-11.833 0.01109-0.0691 0.09557-1.9391-0.65075-2.1119-0.51257-0.11871-1.5113 0.54615-1.7473 0.803-3.0072 3.2728-4.2794 4.9611-6.233 8.863-0.60313 1.2047-1.0728 2.4735-1.5335 3.7395-0.08004 0.21994-0.12331 1.0778 0.08323 1.2828 0.56361 0.55949 1.1842 1.105 1.9135 1.4194 1.3129 0.56583 3.3302 0.46726 4.6722 0.15565 1.2096-0.28086 2.45-0.5491 3.5532-1.1191 1.5254-0.78809 2.8368-2.5462 2.8916-4.3067 0.03386-1.0882-0.142-1.7421-0.96942-2.5059-0.19165-0.17693-0.47159-0.28587-0.73224-0.27593-0.51851 0.0198-1.1159 0.0288-1.5141 0.36157-2.1965 1.8354-2.6888 5.5739-3.2432 7.9233-0.15792 0.6693-0.30206 3.5422 0.32022 4.2244 0.23851 0.26149 0.57518 0.44641 0.91839 0.53284 0.4601 0.11586 1.6194-0.40172 1.852-0.61868 2.6262-2.4494 3.7642-3.7484 5.1938-6.8559 0.38491-0.83672 0.62313-1.7346 0.88083-2.6188 0.02424-0.0831 0.28284-1.0916 0.10447-1.1461-0.35295-0.10765-0.72575-0.22457-1.0921-0.18078-0.81592 0.0975-2.6076 1.1862-3.0672 1.5434-1.8305 1.4225-3.0605 2.4468-4.3406 4.1504-0.35034 0.46624-1.2865 2.1449-0.5427 2.5763 2.5422 1.4747 4.9599 1.5511 7.6109 0.3034 1.1603-0.54609 2.7162-1.3222 3.3508-2.6048 0.43517-0.87947 1.8853-3.4192 0.24951-4.2382-0.18267-0.0915-0.40901-0.12181-0.60813-0.0761-1.804 0.41398-2.5001 1.8866-3.0624 3.5029-0.11396 0.3276-0.13164 0.93965 0.03724 1.2655 0.15986 0.30843 0.28127 0.7626 0.62054 0.83731 1.7283 0.38059 2.1662-0.78089 2.7292-2.0656 0.40558-0.9255 0.75283-1.8819 1.0008-2.8614 0.22281-0.88004 0.28541-1.7932 0.40548-2.693 0.04335-0.32489 2.65e-4 -0.76943-0.07442-0.77212-1.7906-0.0646-4.0335 3.8947-4.4682 4.4246-0.50748 0.61874-0.97092 1.2723-1.4538 1.9105-0.30852 0.40771-0.39482 0.55387-0.69855 0.9087-0.07559 0.0883-0.15761 0.17089-0.2358 0.25689-0.01696 0.0187-0.06391 0.0779-0.04964 0.0571 0.29806-0.43417 0.66322-0.92175 1.0188-1.2817 0.68775-0.69616 1.4508-1.2918 2.1682-1.949 0.53995-0.49462-1.1472 0.91163-1.6932 1.3995-0.34553 0.30873-2.951 2.8954-2.9779 2.9218-0.21882 0.21551-0.42542 0.44327-0.64591 0.65706-0.06129 0.0594-0.1952 0.24706-0.19857 0.16175-0.01064-0.26933 0.08773-0.53428 0.17375-0.78973 0.46196-1.3718 0.9528-2.7341 1.4684-4.0867 0.1699-0.44569 0.3903-0.87046 0.58696-1.305 0.11303-0.24977 0.22797-0.49866 0.34211-0.74791 0.02956-0.0645 0.13644-0.23415 0.07446-0.19953-1.5181 0.84806-2.8437 2.6992-3.9084 3.9271-0.87317 1.007-0.16697 0.2452-0.7833 0.90148-0.05369 0.0572-0.19261 0.24319-0.16134 0.17126 0.03519-0.0809 0.11666-0.1325 0.17375-0.19981 1.7237-2.0323 2.1545-2.7144 3.8026-4.2587 0.28183-0.26408 0.58993-0.49864 0.88366-0.74941 0.06889-0.0588 0.1615-0.24714 0.21098-0.17126 0.03022 0.0463 0.0576 0.11031 0.03723 0.16175-0.30599 0.77276-0.64346 1.5335-1.0049 2.282-0.30039 0.62206-0.65194 1.2181-0.97907 1.8265-0.04257 0.0792-1.0242 1.693-1.0032 2.1339 0.0035 0.0727 0.4699 0.29028 0.94321-0.14272 0.80008-0.73195 1.5244-1.5479 2.2027-2.394 1.8389-2.2939 2.8617-4.3791 4.199-7.078 0.28348-0.57214 0.51412-1.488 0.0956-2.0551-0.43019-0.58293-1.1153-0.99579-1.717-1.3346-1.6541-0.93134-4.5602-0.21685-5.8421 1.1632-1.0085 1.0859-1.8793 2.2934-2.7639 3.4824-0.30232 0.40636-0.59859 0.82867-0.79179 1.2969-0.28878 0.69982-0.68478 1.657-0.42004 2.4688 0.06975 0.2139 0.12233 0.47574 0.31027 0.59943 0.62906 0.41405 1.3141 0.78614 2.0484 0.95304 0.48563 0.11036 1.0007-0.0404 1.4865-0.14966 2.6993-0.60694 3.285-2.2659 5.3331-4.8726 0.61236-0.77941 1.0872-1.6632 1.5272-2.5514 0.1814-0.36613 1.7934-3.3322 0.24692-3.7198-0.4666-0.11695-1.4012 0.34666-1.6617 0.6055-1.1092 1.1025-2.0761 2.3395-3.1145 3.509-0.546 0.61499-1.1414 1.1894-1.6385 1.8445-0.07368 0.0971-2.7407 4.0102-3.7239 5.2337-0.71008 0.88358-1.8379 2.3082-3.0227 0.98556-0.79758-0.89035-1.5641-2.6711-1.3611-3.881 0.05919-0.3528 0.26658-0.67737 0.49643-0.95149 0.83148-0.99162 3.2722-1.3028 4.5774-1.4193 0.42022-0.0375 2.5483-0.16925 2.7842 0.0609 0.61622 0.60128 0.65513 0.9524 0.55848 1.7518-0.06429 0.53176-0.06927 1.0953-0.30027 1.5786-1.2931 2.7052-1.6238 2.8926-3.3353 4.5909-0.45537 0.45186-0.86292 0.95965-1.3734 1.3482-0.42567 0.32405-1.9503 1.6815-2.8351 0.89042-0.85176-0.76155-0.83603-3.209-0.74592-3.8724 0.76663-5.6439 1.682-7.447 4.5348-12.577 0.29137-0.52391 0.7071-0.98879 1.1801-1.3571 3.305-2.5736 3.3044-2.8012 6.3148-3.5202 0.52692-0.12586 1.1294-0.14927 1.6682-0.17541 0.0988-0.0048 0.39562-0.0031 0.29675 0-2.1255 0.0679-4.1141 0.43262-6.167 0.90839-0.63893 0.14808-1.2844 0.27893-1.9063 0.48718-0.90406 0.30272-1.9536 0.40626-2.6633 1.0429-1.784 1.6005-2.4566 3.7962-1.3522 5.8364 0.09432 0.17424 0.26762 0.29441 0.42196 0.41865 0.75473 0.60756 1.1073 0.58033 2.2837 0.70411 2.6436 0.27816 5.104-2.3743 5.421-4.8261 0.11795-0.91235-1.2371-2.1308-2.1-1.8179-2.3643 0.8575-4.7519 3.2411-5.4278 5.7575-0.19326 0.71952-0.76734 2.8503-0.35784 4.0421 0.09912 0.28847 0.27303 0.54552 0.40955 0.81828" clip-path="none" stroke="#f8971f" stroke-opacity=".99312" stroke-width=".465"/>
  <g stroke-width=".26458px">
   <path transform="matrix(1.2824 0 0 1.2824 -43.844 -31.071)" d="m87.667 116.83c-0.96288-0.63036-1.9742 0.80136-1.7562 1.7078 0.06756 0.28087 0.19827 0.54482 0.33509 0.79925 0.05447 0.10129 0.4289 0.48163 0.53366 0.53283 0.22351 0.10924 0.45987 0.21312 0.70741 0.23787 0.79159 0.0792 1.455-1.1974 1.6382-1.8364 0.04123-0.14381 0.08816-0.28849 0.09929-0.43768 0.08089-1.0852-2.6122-1.2798-2.8545-0.30448-0.04767 0.1919-0.06474 0.39222-0.06205 0.58992 0.0039 0.28673 0.28544 1.076 0.68258 0.98955 0.81686-0.17772 1.711-1.0795 1.3031-1.9981-0.2021-0.45515-0.67597-0.52969-1.179-0.68507-1.4749-0.45556-3.2971 1.1194-3.1523 2.6071 0.04946 0.50809 0.69959 1.0752 1.2535 0.78974 0.86931-0.44808 1.6137-1.3496 1.7375-2.3407 0.01005-0.0804 0.08742-0.67007-0.17375-0.73264-0.15315-0.0367-0.31684-0.0577-0.4716-0.0285-0.79539 0.14995-1.4061 2.357-0.78188 2.902 0.9303 0.8123 1.8809-0.0175 2.5814-0.61846 0.16002-0.13729 0.25302-0.25859 0.37232-0.41865 0.04415-0.0592 0.17728-0.23492 0.12411-0.18364-0.59026 0.5693-0.97855 2.4323-1.0273 3.2338-0.0037 0.0602-0.06944 0.62976 0.08687 0.63749 1.1826 0.0585 1.7999-2.8007 1.837-3.7254 0.0042-0.10372-0.05837-0.46346-0.21098-0.52331-0.72745-0.28534-1.7353-0.29942-2.4077 0.17126-0.78826 0.55179 0.43127 1.1127 0.79428 1.2179 1.351 0.39158 2.2055-2.3338 1.0797-2.9877-1.0547-0.61257-2.7462 1.1211-2.8172 2.217-0.02228 0.34367 0.1818 1.0955 0.70741 1.0466 1.1039-0.10258 1.5537-0.67959 2.0974-1.6175 0.06603-0.11391 0.28144-0.76044 0.21098-0.97052-0.37353-1.1137-1.9513-1.1862-2.8545-0.71361-2.2987 1.2029 0.90224 3.9335 2.296 2.4834 0.14304-0.14883 0.2985-0.29771 0.38473-0.48526 0.0724-0.15747 0.55147-1.1806 0.44757-1.6769-0.24906-1.1897-1.7309-0.4873-2.3332-0.16175-0.60822 0.32875-2.0451 2.6796-1.3155 3.511 0.44869 0.51134 0.754 0.53864 1.5762 0.7041 0.62197 0.12517 1.2413-0.097 1.7623-0.42817 0.18293-0.11628 0.29429-0.31961 0.42197-0.49477 0.65435-0.89773 0.74007-2.0474 0.17375-2.9972-0.32222-0.5404-1.1975-0.62964-1.7003-0.65653-0.28901-0.0155-0.72799 0.10388-0.95562 0.30448-0.24832 0.21882-0.47788 0.46326-0.67017 0.73264-0.40465 0.56683-1.0391 2.1891-0.49643 2.8259 0.19539 0.22929 0.7822 0.43451 1.0425 0.42817 0.58066-0.0142 1.1711-0.0566 1.7286-0.21929 0.24836-0.0725 0.43728-0.28359 0.62054-0.46623 0.78502-0.78241 0.95107-1.0372 1.0053-2.2074 0.01315-0.28385-0.7956-0.70113-0.80669-0.70411-0.6203-0.16617-1.2659-0.24891-1.9078-0.26817-0.26144-8e-3 -0.87531 0.24202-1.0938 0.44766-1.0112 0.95187-0.87146 1.9905-0.50884 3.2446 0.1081 0.37387 0.74598 1.5985 1.2287 1.6651 0.31966 0.0441 0.65555 0.071 0.96804-0.01 1.0597-0.27308 1.8321-3.0544 1.9082-3.9052 0.01529-0.17078 0.14131-0.47134-0.02482-0.5138-0.10421-0.0266-0.21616-0.0149-0.32268 0-1.097 0.15352-1.6453 0.27996-2.4325 1.0276-0.10937 0.10387-0.28244 0.34842-0.27304 0.52332 0.01215 0.22551 0.05409 0.45133 0.12411 0.66604 0.14873 0.45611 0.98666 0.91584 1.4396 0.69459 1.081-0.528 1.5813-2.7353 0.55848-3.549-0.49967-0.39753-0.91344-0.37837-1.601-0.39962-0.95601-0.0296-1.4122 1.1533-1.4769 1.8935-0.04254 0.48688 0.10511 1.9278 1.1294 1.5414 1.3752-0.51881 2.6301-2.0868 1.917-3.5842-0.16282-0.34191-0.86976-0.51732-1.1294-0.52331-0.43349-0.01-0.86799 0.0652-1.2907 0.16175-1.01 0.23066-1.5759 1.5421-1.2659 2.4644 0.06282 0.18685 0.13082 0.37549 0.2358 0.54235 0.39687 0.6308 1.5826 0.97779 2.1967 0.48526 0.07723-0.062 0.60596-0.57089 0.59571-0.75168-0.01606-0.2833-0.02746-0.60143-0.19857-0.82779-0.64062-0.84746-1.9407-1.3774-2.9413-0.84683-1.278 0.67764-1.4654 1.9075-0.99285 3.1875 0.11706 0.31711 0.55285 1.11 0.84393 1.256 0.25053 0.12568 0.51582 0.24401 0.79428 0.27593 1.433 0.16429 2.1822-2.7164 2.2836-3.3587 0.05108-0.32377 0.0066-0.74538-0.24822-0.95149-0.42662-0.345-1.0201-0.43985-1.5637-0.5138-0.25465-0.0346-0.50278 0.11294-0.74465 0.19981-1.2399 0.44532-2.523 1.6909-1.7251 3.1018 0.71849 1.2705 2.0206 2.1454 2.991 0.39962 0.73116-1.3154 0.76585-2.0443 0.46354-3.4139-0.02932-0.13283-0.13473-0.242-0.2358-0.33302-0.42281-0.38076-0.48819-0.46116-0.96803-0.28545-0.14535 0.0532-0.30191 0.10761-0.40955 0.21884-0.58109 0.60046-0.80054 0.88591-0.90598 1.6366-0.18105 1.2889 0.90955 2.6826 2.3208 2.1694 1.1929-0.43384 1.7916-1.7836 2.0131-2.9155 0.02611-0.13346-0.0063-0.39139-0.11169-0.48525-0.42506-0.37845-1.7078 0.36641-1.8864 0.47574-0.36462 0.22316-1.1191 1.1659-1.0053 1.6461 0.11373 0.47953 0.44311 0.8397 0.95562 0.92294 0.16501 0.0268 1.1349 0.16401 1.4645-0.0571 0.8146-0.54646 1.0398-1.2024 0.5709-2.0552-0.10225-0.18594-0.51565-0.44759-0.695-0.47574-0.37611-0.059-0.76575-0.088-1.1418-0.0285-0.3509 0.0555-1.1341 1.0651-1.2287 1.1894-0.25236 0.33168-0.48585 0.88251-0.52124 1.294-0.09748 1.1334 0.09995 1.4689 1.2411 1.8364 1.7741 0.57126 3.3755-1.6205 3.3491-3.1998-0.0041-0.24444-0.41151-0.7742-0.58331-0.86586-0.49406-0.26359-1.0226-0.4722-1.5655-0.60943-0.27326-0.0691-0.56452-0.0213-0.84556 0-1.1843 0.09-2.1242 0.65628-2.6559 1.7032-0.12209 0.24038-0.11062 0.59888-0.01241 0.83731 0.39871 0.96796 1.0509 1.8495 2.2339 1.7222 0.1827-0.0197 0.38561-0.12306 0.4716-0.28545 0.65042-1.2282 1.226-2.5009 1.6965-3.8086 0.08031-0.22322 0.10562-1.6019-0.18288-1.8486-1.5168-1.2972-2.8622 0.44386-3.6863 1.5038-0.12991 0.16708-0.50532 0.82651-0.52144 1.1231-0.06138 1.1293 0.25416 1.4522 1.4148 1.7412 0.28913 0.072 1.2541-0.0541 1.5389-0.17127 0.40031-0.16463 0.78468-0.37386 1.1418-0.61846 0.33182-0.2273 0.63734-0.8667 0.75706-1.1798 0.07223-0.18892 0.0487-0.52892-0.07447-0.69458-0.16807-0.22607-0.34583-0.46939-0.59571-0.59944-0.33733-0.17556-0.7258-0.2514-1.1045-0.28545-0.01498-1e-3 -0.79045 0.0769-0.91839 0.23788-0.50164 0.63131-0.87192 1.7878-0.40956 2.55 0.21712 0.35788 0.91261 0.49871 1.2287 0.17127 0.3671-0.38032 0.70916-0.79787 0.95562-1.2655 0.46378-0.87993 0.59595-1.9745 0.19337-2.8929-0.04809-0.10971-0.14602-0.21258-0.26062-0.24739-0.33994-0.10327-0.70005-0.16951-1.0549-0.15224-0.87167 0.0424-1.4628 1.5397-1.663 2.0267-0.13718 0.33354-0.16318 0.90711-0.13652 1.275 0.02267 0.31282 0.08809 0.72532 0.13652 1.0657 3e-3 0.0213 0.01725 0.43125 0.13652 0.45671 0.79323 0.16936 0.84164 0.16115 1.5389-0.0285 0.11348-0.0309 1.5074-0.37901 1.7127-0.61846 0.12046-0.14054 2.17e-4 -0.46855-0.08687-0.55186-0.61703-0.59024-1.8612-1.5813-2.8669-1.4082-1.5558 0.26777-0.91089 3.3305-0.74394 4.182 0.0402 0.20506 0.09618 0.40675 0.14893 0.60895 0.16162 0.61955 0.11017 0.60824 0.71982 0.36156" clip-path="none" stroke="#00a9b7"/>
   <path transform="matrix(1.2824 0 0 1.2824 -43.844 -31.071)" d="m84.756 105.9c-0.63072 1.2138-0.61358 2.7606-0.59454 4.1034 0.0027 0.19046 0.01892 0.3805 0.02482 0.57089 0.0024 0.0761 0 0.15224 0 0.22836 0 0.0119-0.0062 0.046 0 0.0358 0.65461-1.0692 0.91495-2.3294 1.3485-3.4976 0.03971-0.107 0.09101-0.20933 0.13652-0.31399 0.01241-0.0285 0.04857-0.11462 0.03723-0.0856-0.22439 0.57342-0.40882 1.159-0.54607 1.7602-0.05477 0.23994-0.09449 0.48313-0.14893 0.72314-0.0118 0.0521-0.06978 0.20166-0.04964 0.15223 0.30219-0.74135 0.43806-1.5255 0.54607-2.3121 0.0088-0.064 0.05213-0.1274 0.03723-0.1903-0.04707-0.19868-0.88983 1.1918-0.9126 1.229-0.03584 0.0587-0.06405 0.12174-0.09928 0.18078-0.01003 0.0168-0.04307 0.0646-0.03622 0.0463 0.0629-0.16877 0.13684-0.33323 0.20526-0.49984 0.2027-0.55503 0.41057-1.1082 0.60812-1.6651 0.07138-0.20122 0.13525-0.40505 0.19858-0.60895 0.01945-0.0626 0.08163-0.24752 0.04964-0.1903-0.51185 0.91563-0.83799 1.9263-1.1542 2.9211-0.03234 0.10174-0.06084 0.20489-0.09928 0.30448-7e-3 0.0182-0.04479 0.0634-0.03602 0.046 1.5599-3.0954-0.16426 0.40087 1.1573-2.327 0.09825-0.20279 0.16829-0.32795 0.17315-0.32258 0.21494 0.23803-0.45247 3.0756-0.53488 3.4414-0.0376 0.16691-0.08921 0.33036-0.13652 0.49477-0.01476 0.0513-0.10135 0.16546-0.04964 0.15224 0.39589-0.10117 1.359-1.981 1.6867-2.6063 0.04851-0.0926 0.18015-0.37568 0.14892-0.27593-0.26708 0.85317-0.79666 1.6166-1.117 2.4548-0.02706 0.0708-0.12882 0.25479-0.06206 0.21885 0.69799-0.37573 1.1418-1.2276 1.5638-1.8078 0.09326-0.12826 0.19068-0.25344 0.28544-0.38059 0.03761-0.0505 0.11485-0.2151 0.1117-0.15224-0.02809 0.56-1.1331 2.1653-1.0673 2.4929 0.01847 0.0921 1.4492-1.9906 1.7195-2.4171 0.04866-0.0768 0.1714-0.31642 0.14893-0.22836-0.05895 0.231-0.18286 0.44067-0.26062 0.66604-0.27337 0.79222-0.36613 1.0224-0.47161 1.7412-0.06891 0.46958 0.62909-0.18348 1.0425-0.50429 0.10608-0.0823 0.21278-0.16457 0.31027-0.2569 0.04386-0.0415 0.11388-0.2031 0.1117-0.14273-0.0263 0.7259-0.14521 0.82817-0.39715 1.4463-0.03968 0.0974-0.07339 0.19706-0.11169 0.29496-0.01135 0.029-0.06662 0.0959-0.03723 0.0856 0.46113-0.1607 1.2398-1.4336 1.5141-1.922 0.0368-0.0655-0.14933-0.0346-0.22395-0.0258-0.42151 0.0499-1.0057 0.29155-1.0549 0.019-0.16062-0.89-0.04315-1.4483 0.01241-2.2931 0.0079-0.12039 0.06981-0.26942-0.08687-0.21884-1.1068 0.35728-0.72032 0.20474-1.7251 0.95148-0.11562 0.0859-0.23432 0.16779-0.3475 0.2569-0.04009 0.0316-0.14172 0.14592-0.11169 0.10467 0.23859-0.32773 0.63948-0.66835 0.84278-1.0262 0.25655-0.45153-0.68379 0.78211-1.0397 1.1603-0.04865 0.0517-0.17531 0.21815-0.14893 0.15224 0.24496-0.61209 0.58321-1.1832 0.84393-1.7888 0.02519-0.0585 0.12475-0.19209 0.06205-0.18079-0.4307 0.0777-1.1201 0.84511-1.2907 1.0181-0.11323 0.11478-0.20889 0.24571-0.31027 0.37108-0.02692 0.0333-0.11727 0.10466-0.07446 0.10466 0.05411 0 0.08134-0.0715 0.1241-0.10466 0.31305-0.2428 0.63181-0.47822 0.94321-0.72313 0.16855-0.13257 0.32854-0.27575 0.49642-0.40914 0.06799-0.054 0.25121-0.20003 0.2338-0.11495-0.23136 1.1308-0.193 0.77411-0.74703 1.836-0.17412 0.33372-0.26784 0.55722-0.21098 0.56137 0.39227 0.0287 0.675-0.40873 0.98044-0.65652 0.25988-0.21083 0.42635-0.37665 0.43437-0.35205 0.10077 0.30905-0.16628 0.63003-0.28544 0.93246-0.03043 0.0772-0.16395 0.2804-0.09929 0.22835 0.38938-0.31344 0.73864-0.67419 1.0921-1.0276 0.16412-0.16408 0.30006-0.35439 0.4592-0.52332 0.05637-0.0598 0.12332-0.21475 0.18616-0.16175 0.0697 0.0588-0.024 0.18356-0.06206 0.26642-0.47714 1.0385-1.1905 2.1365-1.5338 3.2502-0.14062 0.45611 0.68981-0.37579 1.1914-0.79925 0.09709-0.082 0.20096-0.15568 0.29785-0.23788 0.01902-0.0161 0.05069-0.0814 0.04911-0.0565-0.02479 0.38941-0.19487 0.85405-0.29706 1.2036-0.03992 0.13657-0.22644 0.44619-0.087 0.4179 0.51287-0.10408 1.2626-1.0814 1.0662-0.66124-0.13353 0.28571-0.27989 0.56526-0.42196 0.84682-0.0786 0.15224-0.1572 0.30448-0.2358 0.45672-0.02069 0.0507-0.03828 0.10286-0.06205 0.15223-0.03924 0.0815-0.2052-0.0319-0.24719-0.11198-0.25436-0.48538-0.46839-0.99593-0.62054-1.5224-0.16389-0.56708-0.20196-1.1634-0.32268-1.7412-0.05742-0.27483-0.17758-0.59233-0.21098-0.58992-0.91246 0.066-1.496 1.0259-1.9733 1.6746-0.07024 0.0955-0.12746 0.20014-0.19857 0.29496-0.02439 0.0325-0.1168 0.11316-0.08687 0.0856 0.10447-0.0961 1.036-0.9544 0.48401-0.39011-0.29882 0.30546-0.59817 0.61145-0.91839 0.8944-0.16903 0.14935-0.36223 0.26893-0.54607 0.39962-0.04378 0.0311-0.13116 0.13909-0.13652 0.0856-0.15356-1.5304 0.56405-2.9247 0.70866-4.4211 0.0072-0.0743-0.15635-0.062-0.2222-0.0269-0.4997 0.26602-0.532 0.41049-0.88116 0.80877-0.0468 0.0534-0.0989 0.10187-0.14893 0.15223-0.0159 0.016-0.06436 0.0632-0.04884 0.0468 0.11899-0.12544 0.54601-0.54879 0.55607-0.55891 0.19632-0.19755 0.31251-0.32781 0.28544-0.27593-0.23288 0.44633-0.62148 0.79304-0.90598 1.2084-0.14881 0.21725-0.26571 0.45498-0.40956 0.67555-0.03854 0.0591-0.156 0.22956-0.13651 0.16175 0.26958-0.93799 0.74014-2.1441 1.0673-3.1018 0.03972-0.11627 0.27271-0.60656-0.11909-0.36114-0.55797 0.34951-0.76741 0.86901-0.98045 1.4558-0.03234 0.0891-0.06475 0.17816-0.09928 0.26642-0.01514 0.0386-0.05887 0.0737-0.04965 0.11418 0.03376 0.14804 1.4488-0.8407 1.4679-0.53856 0.0275 0.43372 0.03737 0.87342-0.02482 1.3035-0.08787 0.60769-0.28685 1.1941-0.42292 1.7928-0.05467 0.24052-0.11253 0.48086-0.14926 0.72477-0.01812 0.12029-0.06585 0.3998 0.04964 0.36156 0.5731-0.18973 0.81802-0.62838 1.2162-1.0752 0.10067-0.11295 0.19645-0.23023 0.29786-0.34253 0.04758-0.0527 0.15256-0.22314 0.14893-0.15224-0.02664 0.52094-0.51199 1.3012-0.695 1.6746-0.08623 0.17594-0.16644 0.35477-0.24821 0.53283-0.02164 0.0471-0.09039 0.0993-0.06205 0.14272 0.02387 0.0366 0.07739-0.0478 0.09929-0.0856 0.27313-0.47189 0.52918-0.9536 0.78187-1.4368 0.18934-0.36203 0.44175-0.7856 0.19858-0.81827-0.36093-0.0485-0.72802-0.0342-1.0921-0.0285-0.56331 9e-3 -1.2907 0.25155-1.2907-0.0761 0-0.91307 0.32601-1.5852 0.695-2.3882 0.10665-0.23212 0.15569-0.38459 0.14892-0.31399-0.07459 0.77764-0.25396 1.2336-0.39714 2.0647-0.18146 1.0533 0.05209 1.1351 1.1418-0.0476 0.74438-0.80791 1.3662-1.7213 2.0171-2.6063 0.2232-0.30348 0.39516-0.64166 0.60288-0.95594 0.05552-0.084 0.18991-0.33849 0.18616-0.23787-0.03429 0.92023-0.42948 1.8309-0.70741 2.6832-0.06994 0.21448-0.1259 0.43344-0.19857 0.64701-0.02674 0.0786-0.0877 0.14617-0.09929 0.22836-0.03145 0.22303 0.29853 0.12485 0.37232 0.12369 0.29789-5e-3 0.59745 0.0137 0.89357-0.019 0.39656-0.0438 0.58964-0.29461 0.59572-0.17127 0.01746 0.3551-0.08446 0.70651-0.14893 1.0562-0.05497 0.29813-0.391 1.0592-0.23593 1.4443 0.19181 0.47628 0.78646-0.0827 0.53366 0.59171-0.0955 0.25478-0.23036 0.49337-0.35991 0.73264-0.10177 0.18797-0.24565 0.36172-0.26062 0.33302-0.29481-0.56506-0.27728-2.2402-0.28619-2.3604-0.01527-0.20586-0.12906-0.79741-0.04992-1.0783 0.19824-0.70357 0.79161-1.2891 1.203-1.8626 0.31992-0.44595 0.43911-0.66261 0.695-1.0942" clip-path="none" stroke="#a6cd57"/>
   <path transform="matrix(1.2824 0 0 1.2824 -43.844 -31.071)" d="m77.839 113.71c0.38395-1.7204 1.366-2.0953 2.4737-3.205 0.20271-0.20615 0.40542-0.41231 0.60813-0.61846 0.07033-0.0603 0.14374-0.1171 0.21098-0.18079 0.07357-0.0697 0.13813-0.14841 0.21098-0.21884 0.03517-0.034 0.12793-0.14128 0.1117-0.0952-0.5396 1.5341-1.5307 2.8294-2.4355 4.1628-0.14607 0.21526-0.27985 0.43863-0.42196 0.65653-0.05792 0.0888-0.24127 0.34815-0.17375 0.26641 0.37455-0.45341 0.66128-0.95673 1.0128-1.4286 1.1942-1.6032 0.69454-0.8068 1.4441-1.9048 0.64937-0.95125-0.11959 0.11877 0.5833-0.83731 0.02535-0.0345 0.04964-0.0698 0.07446-0.10467 0.02896-0.0412 0.05708-0.0831 0.08688-0.12369 0.0073-0.01 0.02241-0.0403 0.02442-0.0281 0.09899 0.60722-1.3759 2.6091-1.8244 3.3558-0.15185 0.25279-0.29048 0.5133-0.43438 0.7707-0.36978 0.6615 0.14925-0.25032-0.16134 0.28545-9e-3 0.0155-0.0362 0.0614-0.02482 0.0476 0.81648-0.99045 1.5725-2.0237 2.3244-3.0633 0.26412-0.36521 0.0396-0.0667 0.26062-0.35205 0.04374-0.0565 0.14007-0.24436 0.1241-0.17473-0.22864 0.99706-0.85221 1.9226-1.3057 2.8399-0.13238 0.26007-0.26476 0.52014-0.39714 0.78022-0.0331 0.0698-0.06515 0.14005-0.09928 0.20932-0.0362 0.0735-0.07538 0.14544-0.1117 0.21884-0.0092 0.0186-0.04059 0.0706-0.02482 0.0571 0.82993-0.70969 1.3985-1.8231 1.9837-2.6995 0.19367-0.29003 0.41144-0.57681 0.63294-0.84682 0.02701-0.0329 0.09444-0.13599 0.08626-0.0942-0.09846 0.50331-0.44256 0.92542-0.67581 1.3822-0.36734 0.7193-0.31589 0.64974-0.68296 1.2852-0.05903 0.1022-0.46239 0.8028-0.63294 1.0562-0.07173 0.10655-0.14754 0.21033-0.22339 0.31399-0.0313 0.0428-0.13988 0.13222-0.08687 0.13321 0.03397 5.3e-4 0.06229-0.0309 0.08517-0.056 0.15639-0.17168 0.31632-0.34195 0.45019-0.53172 0.1234-0.17493 1.4004-2.0886 1.8443-2.7638 0.12897-0.19617 0.25649-0.39328 0.38474-0.58992 0.04964-0.0761 0.10042-0.15151 0.14893-0.22836 0.01357-0.0215 0.0514-0.0877 0.03723-0.0666-0.6132 0.91446-1.0874 1.8723-1.579 2.8589-0.57632 1.1566 0.10184-0.19979-0.42197 0.8278-0.07567 0.14845-0.14529 0.3-0.22339 0.44719-0.02839 0.0535-0.13989 0.19721-0.09928 0.15224 0.17881-0.19801 0.28265-0.45272 0.4158-0.68391 0.59026-1.0249 1.2015-2.0382 1.7673-3.0768 0.10674-0.19593 0.2005-0.39868 0.29785-0.59943 0.04186-0.0863 0.20732-0.25766 0.11169-0.26524-0.16468-0.013-0.7442 0.48912-0.77808 0.51622-0.85595 0.68476-1.6209 1.4542-2.3105 2.305-0.40333 0.49765-0.24167 0.30623-0.65777 0.79925-0.04396 0.0521-0.15297 0.21839-0.13652 0.15224 0.38779-1.5596 1.3404-3.0197 2.0165-4.4906 1.4914-3.2444-0.47332 0.97182 0.74802-1.6031 0.0019-4e-3 0.12882-0.31369 0.1241-0.314-0.21482-0.0137-1.0033 0.56325-1.0673 0.60896-1.0335 0.73752-1.9748 1.5866-2.948 2.3984-0.37238 0.31063-0.64332 0.47965-1.0549 0.75168-0.11741 0.0776-0.23187 0.14254-0.35972 0.19973-0.03249 0.0145-0.10729 0.0802-0.09618 0.0464 0.18294-0.55644 0.69487-1.1431 1.022-1.6095 0.52879-0.75391 1.0365-1.5553 1.6134-2.274" clip-path="none" stroke="#ffd600"/>
  </g>
 </g>
 <g transform="matrix(.023402 7.5152e-5 -7.5152e-5 .023402 18.742 13.23)" fill="none" stroke="#000" stroke-linejoin="round" stroke-width="33.917">
  <g fill="none" stroke="#000" stroke-linejoin="round" stroke-width="33.917">
   <path d="m328.88 89.125 107.59 107.59-272.34 272.34-107.53-107.59zm189.23-25.948-47.981-47.981c-18.543-18.543-48.653-18.543-67.259 0l-45.961 45.961 107.59 107.59 53.611-53.611c14.382-14.383 14.382-37.577 0-51.959zm-517.81 449.51c-1.958 8.812 5.998 16.708 14.811 14.565l119.89-29.069-107.53-107.59z" fill="none" stroke="#000" stroke-linejoin="round" stroke-width="33.917"/>
  </g>
 </g>
</svg>
